<svg viewBox="0 0 398 304" fill="none" xmlns="http://www.w3.org/2000/svg">
<path d="M2.786 27V6.756H15.232V8.716H4.97V15.8H14.294V17.76H4.97V24.984L15.54 24.998V27H2.786ZM34.6174 27H32.2794L28.4714 18.026H22.6614V27H20.4774V6.756H28.1214C29.5401 6.756 30.7301 6.97067 31.6914 7.4C32.6621 7.82 33.3901 8.43133 33.8754 9.234C34.3701 10.0367 34.6174 11.0073 34.6174 12.146C34.6174 13.2473 34.4121 14.1667 34.0014 14.904C33.6001 15.632 33.0914 16.2153 32.4754 16.654C31.8594 17.0833 31.2247 17.4053 30.5714 17.62L34.6174 27ZM27.2534 16.15C28.8961 16.15 30.1561 15.8373 31.0334 15.212C31.9201 14.5773 32.3634 13.6067 32.3634 12.3C32.3634 11.04 31.9761 10.1113 31.2014 9.514C30.4267 8.90733 29.3441 8.604 27.9534 8.604H22.6614V16.15H27.2534ZM63.917 12.524L59.633 27H57.281L53.823 15.786L50.547 27H48.195L43.785 12.524H45.843L49.315 24.228H49.567L52.997 12.524H54.691L58.261 24.2H58.527L61.845 12.524H63.917ZM70.5145 27.28C69.5718 27.28 68.7458 27.1167 68.0365 26.79C67.3272 26.454 66.7718 25.978 66.3705 25.362C65.9785 24.746 65.7825 24.004 65.7825 23.136C65.7825 21.5307 66.3285 20.3407 67.4205 19.566C68.5218 18.7913 70.2998 18.3713 72.7545 18.306L75.5545 18.222V17.018C75.5545 16.0753 75.2652 15.324 74.6865 14.764C74.1172 14.1947 73.2352 13.9147 72.0405 13.924C71.1445 13.924 70.3652 14.134 69.7025 14.554C69.0492 14.9647 68.6338 15.6273 68.4565 16.542H66.4685C66.5245 15.6367 66.7812 14.8667 67.2385 14.232C67.6958 13.588 68.3398 13.098 69.1705 12.762C70.0012 12.4167 70.9952 12.244 72.1525 12.244C73.3472 12.244 74.3505 12.4213 75.1625 12.776C75.9838 13.1213 76.6045 13.644 77.0245 14.344C77.4445 15.0347 77.6545 15.8933 77.6545 16.92V27H75.7785L75.6245 24.214C75.0458 25.362 74.3085 26.16 73.4125 26.608C72.5258 27.056 71.5598 27.28 70.5145 27.28ZM71.1305 25.642C71.6532 25.642 72.1712 25.5487 72.6845 25.362C73.2072 25.1753 73.6832 24.9187 74.1125 24.592C74.5418 24.2653 74.8872 23.9013 75.1485 23.5C75.4098 23.0987 75.5452 22.688 75.5545 22.268V19.692L73.2165 19.734C71.9938 19.7527 70.9905 19.874 70.2065 20.098C69.4318 20.322 68.8532 20.6673 68.4705 21.134C68.0972 21.5913 67.9105 22.1933 67.9105 22.94C67.9105 23.7893 68.2092 24.452 68.8065 24.928C69.4038 25.404 70.1785 25.642 71.1305 25.642ZM84.7252 12.524V27H82.5972V12.524H84.7252ZM84.7952 6.77V9.178H82.4992V6.77H84.7952ZM96.7039 14.162H93.4279V23.5C93.4279 24.06 93.4792 24.4707 93.5819 24.732C93.6939 24.984 93.8852 25.1473 94.1559 25.222C94.4359 25.2873 94.8232 25.32 95.3179 25.32H96.8019V26.832C96.6246 26.8973 96.3586 26.9533 96.0039 27C95.6586 27.0373 95.2432 27.056 94.7579 27.056C93.8339 27.056 93.1152 26.9253 92.6019 26.664C92.0979 26.4027 91.7432 26.0153 91.5379 25.502C91.3326 24.9887 91.2299 24.3447 91.2299 23.57V14.162H88.8779V12.524H91.2859L91.8039 8.352H93.4279V12.51H96.7039V14.162ZM114.231 14.162H110.955V23.5C110.955 24.06 111.007 24.4707 111.109 24.732C111.221 24.984 111.413 25.1473 111.683 25.222C111.963 25.2873 112.351 25.32 112.845 25.32H114.329V26.832C114.152 26.8973 113.886 26.9533 113.531 27C113.186 27.0373 112.771 27.056 112.285 27.056C111.361 27.056 110.643 26.9253 110.129 26.664C109.625 26.4027 109.271 26.0153 109.065 25.502C108.86 24.9887 108.757 24.3447 108.757 23.57V14.162H106.405V12.524H108.813L109.331 8.352H110.955V12.51H114.231V14.162ZM120.6 12.524V27H118.472V12.524H120.6ZM120.67 6.77V9.178H118.374V6.77H120.67ZM125.56 27V12.524H127.66V14.638C128.043 13.994 128.575 13.434 129.256 12.958C129.947 12.482 130.852 12.244 131.972 12.244C132.514 12.244 133.06 12.3327 133.61 12.51C134.161 12.6873 134.665 12.9533 135.122 13.308C135.58 13.6627 135.93 14.1013 136.172 14.624C136.62 13.896 137.227 13.3173 137.992 12.888C138.758 12.4587 139.626 12.244 140.596 12.244C141.1 12.244 141.623 12.3187 142.164 12.468C142.715 12.6173 143.228 12.8833 143.704 13.266C144.18 13.6393 144.563 14.176 144.852 14.876C145.151 15.5667 145.3 16.458 145.3 17.55V27H143.116V17.746C143.116 16.7847 142.967 16.0473 142.668 15.534C142.37 15.0113 141.982 14.6473 141.506 14.442C141.03 14.2367 140.522 14.134 139.98 14.134C139.495 14.134 138.982 14.2273 138.44 14.414C137.908 14.5913 137.451 14.904 137.068 15.352C136.695 15.8 136.508 16.4207 136.508 17.214V27H134.324V16.878C134.324 16.2713 134.161 15.7673 133.834 15.366C133.517 14.9553 133.12 14.6473 132.644 14.442C132.168 14.2367 131.692 14.134 131.216 14.134C130.694 14.134 130.162 14.2367 129.62 14.442C129.088 14.6473 128.64 14.9787 128.276 15.436C127.922 15.8933 127.744 16.486 127.744 17.214V27H125.56ZM150.997 20.266C150.997 21.2367 151.155 22.1187 151.473 22.912C151.79 23.7053 152.28 24.34 152.943 24.816C153.605 25.292 154.445 25.53 155.463 25.53C156.443 25.53 157.287 25.3013 157.997 24.844C158.706 24.3773 159.149 23.7193 159.327 22.87H161.427C161.249 23.8407 160.862 24.6527 160.265 25.306C159.677 25.9593 158.963 26.454 158.123 26.79C157.292 27.1167 156.415 27.28 155.491 27.28C154.165 27.28 152.994 26.9907 151.977 26.412C150.969 25.824 150.18 24.9793 149.611 23.878C149.051 22.7767 148.771 21.4513 148.771 19.902C148.771 18.362 149.027 17.018 149.541 15.87C150.054 14.7127 150.796 13.8213 151.767 13.196C152.747 12.5613 153.927 12.244 155.309 12.244C156.643 12.244 157.773 12.5333 158.697 13.112C159.621 13.6813 160.325 14.498 160.811 15.562C161.296 16.626 161.539 17.8953 161.539 19.37V20.266H150.997ZM151.011 18.712H159.411C159.411 17.816 159.261 17.0087 158.963 16.29C158.664 15.5713 158.211 15.002 157.605 14.582C156.998 14.162 156.228 13.952 155.295 13.952C154.305 13.952 153.493 14.19 152.859 14.666C152.233 15.1327 151.767 15.73 151.459 16.458C151.151 17.186 151.001 17.9373 151.011 18.712ZM170.138 27.28C169.13 27.28 168.201 27.126 167.352 26.818C166.512 26.5007 165.817 26.02 165.266 25.376C164.725 24.7227 164.384 23.892 164.244 22.884H166.274C166.405 23.4627 166.643 23.9527 166.988 24.354C167.333 24.7553 167.772 25.0633 168.304 25.278C168.845 25.4833 169.457 25.586 170.138 25.586C171.165 25.586 171.991 25.39 172.616 24.998C173.241 24.5967 173.554 23.9853 173.554 23.164C173.554 22.5947 173.391 22.1373 173.064 21.792C172.747 21.4467 172.261 21.1947 171.608 21.036L168.486 20.238C167.347 19.9487 166.442 19.5147 165.77 18.936C165.098 18.348 164.757 17.5313 164.748 16.486C164.748 15.6553 164.944 14.9227 165.336 14.288C165.737 13.6533 166.335 13.154 167.128 12.79C167.921 12.426 168.915 12.244 170.11 12.244C171.631 12.244 172.859 12.5847 173.792 13.266C174.725 13.9473 175.22 14.9647 175.276 16.318H173.288C173.195 15.5807 172.877 14.9973 172.336 14.568C171.795 14.1293 171.048 13.91 170.096 13.91C169.116 13.91 168.318 14.1107 167.702 14.512C167.095 14.9133 166.792 15.534 166.792 16.374C166.792 16.934 167.002 17.3727 167.422 17.69C167.842 17.998 168.453 18.2547 169.256 18.46L172.308 19.258C172.943 19.426 173.465 19.65 173.876 19.93C174.296 20.2007 174.627 20.5087 174.87 20.854C175.122 21.19 175.299 21.5493 175.402 21.932C175.514 22.3147 175.57 22.6833 175.57 23.038C175.57 23.906 175.36 24.6573 174.94 25.292C174.52 25.9267 173.904 26.4167 173.092 26.762C172.289 27.1073 171.305 27.28 170.138 27.28ZM188.331 12.524V27H186.203V12.524H188.331ZM188.401 6.77V9.178H186.105V6.77H188.401ZM193.291 27V12.524H195.391V14.638C195.633 14.218 195.965 13.8307 196.385 13.476C196.814 13.1213 197.332 12.8367 197.939 12.622C198.555 12.4073 199.245 12.3 200.011 12.3C200.944 12.3 201.793 12.4867 202.559 12.86C203.333 13.224 203.949 13.7933 204.407 14.568C204.864 15.3427 205.093 16.3367 205.093 17.55V27H202.909V17.746C202.909 16.514 202.596 15.604 201.971 15.016C201.345 14.428 200.519 14.134 199.493 14.134C198.793 14.134 198.135 14.246 197.519 14.47C196.903 14.694 196.408 15.0347 196.035 15.492C195.661 15.9493 195.475 16.5233 195.475 17.214V27H193.291ZM223.128 27.28C222.185 27.28 221.275 27.1633 220.398 26.93C219.53 26.6873 218.737 26.3327 218.018 25.866C217.309 25.3993 216.721 24.8253 216.254 24.144C215.787 23.4533 215.484 22.6507 215.344 21.736H217.654C217.841 22.548 218.195 23.2293 218.718 23.78C219.241 24.3213 219.885 24.732 220.65 25.012C221.415 25.2827 222.237 25.418 223.114 25.418C224.122 25.418 225.018 25.2733 225.802 24.984C226.586 24.6947 227.202 24.284 227.65 23.752C228.107 23.22 228.336 22.5993 228.336 21.89C228.336 21.246 228.201 20.686 227.93 20.21C227.659 19.734 227.263 19.3373 226.74 19.02C226.217 18.6933 225.569 18.4367 224.794 18.25L220.706 17.27C219.222 16.934 218.06 16.36 217.22 15.548C216.389 14.7267 215.969 13.6487 215.96 12.314C215.96 11.1753 216.259 10.172 216.856 9.304C217.463 8.42667 218.293 7.74067 219.348 7.246C220.412 6.75133 221.635 6.504 223.016 6.504C224.612 6.504 225.942 6.77933 227.006 7.33C228.079 7.88067 228.891 8.59933 229.442 9.486C229.993 10.3727 230.268 11.3107 230.268 12.3H227.986C227.902 11.3293 227.617 10.5593 227.132 9.99C226.647 9.42067 226.045 9.01467 225.326 8.772C224.617 8.52933 223.847 8.408 223.016 8.408C222.437 8.408 221.863 8.48733 221.294 8.646C220.734 8.79533 220.225 9.024 219.768 9.332C219.311 9.64 218.947 10.0273 218.676 10.494C218.405 10.9607 218.27 11.5067 218.27 12.132C218.27 12.8973 218.531 13.5227 219.054 14.008C219.586 14.484 220.538 14.8993 221.91 15.254L225.872 16.22C226.824 16.4347 227.603 16.7427 228.21 17.144C228.826 17.5453 229.307 18.0073 229.652 18.53C229.997 19.0433 230.235 19.5847 230.366 20.154C230.506 20.7233 230.576 21.288 230.576 21.848C230.576 22.8467 230.287 23.7567 229.708 24.578C229.129 25.3993 228.285 26.0573 227.174 26.552C226.063 27.0373 224.715 27.28 223.128 27.28ZM235.044 6.756H247.336V8.702H237.312V15.828H246.398V17.774H237.312V27H235.044V6.756ZM257.576 27V12.524H259.648V15.142C259.891 14.4607 260.231 13.91 260.67 13.49C261.118 13.0607 261.617 12.748 262.168 12.552C262.728 12.3467 263.293 12.244 263.862 12.244C264.095 12.244 264.324 12.2627 264.548 12.3C264.772 12.328 264.949 12.3793 265.08 12.454V14.582C264.931 14.5073 264.73 14.456 264.478 14.428C264.235 14.4 264.03 14.386 263.862 14.386C263.349 14.358 262.849 14.3953 262.364 14.498C261.879 14.6007 261.435 14.7827 261.034 15.044C260.642 15.3053 260.329 15.6553 260.096 16.094C259.872 16.5327 259.76 17.0693 259.76 17.704V27H257.576ZM271.847 27.28C270.904 27.28 270.078 27.1167 269.369 26.79C268.659 26.454 268.104 25.978 267.703 25.362C267.311 24.746 267.115 24.004 267.115 23.136C267.115 21.5307 267.661 20.3407 268.753 19.566C269.854 18.7913 271.632 18.3713 274.087 18.306L276.887 18.222V17.018C276.887 16.0753 276.597 15.324 276.019 14.764C275.449 14.1947 274.567 13.9147 273.373 13.924C272.477 13.924 271.697 14.134 271.035 14.554C270.381 14.9647 269.966 15.6273 269.789 16.542H267.801C267.857 15.6367 268.113 14.8667 268.571 14.232C269.028 13.588 269.672 13.098 270.503 12.762C271.333 12.4167 272.327 12.244 273.485 12.244C274.679 12.244 275.683 12.4213 276.495 12.776C277.316 13.1213 277.937 13.644 278.357 14.344C278.777 15.0347 278.987 15.8933 278.987 16.92V27H277.111L276.957 24.214C276.378 25.362 275.641 26.16 274.745 26.608C273.858 27.056 272.892 27.28 271.847 27.28ZM272.463 25.642C272.985 25.642 273.503 25.5487 274.017 25.362C274.539 25.1753 275.015 24.9187 275.445 24.592C275.874 24.2653 276.219 23.9013 276.481 23.5C276.742 23.0987 276.877 22.688 276.887 22.268V19.692L274.549 19.734C273.326 19.7527 272.323 19.874 271.539 20.098C270.764 20.322 270.185 20.6673 269.803 21.134C269.429 21.5913 269.243 22.1933 269.243 22.94C269.243 23.7893 269.541 24.452 270.139 24.928C270.736 25.404 271.511 25.642 272.463 25.642ZM283.607 27V12.524H285.707V14.638C285.95 14.218 286.281 13.8307 286.701 13.476C287.131 13.1213 287.649 12.8367 288.255 12.622C288.871 12.4073 289.562 12.3 290.327 12.3C291.261 12.3 292.11 12.4867 292.875 12.86C293.65 13.224 294.266 13.7933 294.723 14.568C295.181 15.3427 295.409 16.3367 295.409 17.55V27H293.225V17.746C293.225 16.514 292.913 15.604 292.287 15.016C291.662 14.428 290.836 14.134 289.809 14.134C289.109 14.134 288.451 14.246 287.835 14.47C287.219 14.694 286.725 15.0347 286.351 15.492C285.978 15.9493 285.791 16.5233 285.791 17.214V27H283.607ZM305.581 31.788C303.387 31.788 301.665 31.4567 300.415 30.794C299.173 30.1407 298.553 29.1793 298.553 27.91C298.553 27.378 298.669 26.9253 298.903 26.552C299.145 26.1693 299.43 25.852 299.757 25.6C300.093 25.348 300.405 25.1473 300.695 24.998C300.984 24.8393 301.175 24.7227 301.269 24.648C301.101 24.5453 300.905 24.4287 300.681 24.298C300.457 24.158 300.261 23.9807 300.093 23.766C299.934 23.542 299.855 23.2573 299.855 22.912C299.855 22.4733 300.06 22.072 300.471 21.708C300.881 21.3347 301.493 21.0547 302.305 20.868C301.483 20.4387 300.835 19.8787 300.359 19.188C299.892 18.488 299.659 17.7227 299.659 16.892C299.659 15.9587 299.897 15.1467 300.373 14.456C300.858 13.7653 301.558 13.2333 302.473 12.86C303.387 12.4867 304.498 12.3 305.805 12.3C306.729 12.3 307.513 12.412 308.157 12.636C308.801 12.8507 309.398 13.168 309.949 13.588C310.089 13.5227 310.313 13.4247 310.621 13.294C310.938 13.1633 311.288 13.0233 311.671 12.874C312.053 12.7153 312.408 12.566 312.735 12.426C313.071 12.286 313.323 12.1787 313.491 12.104V14.288L310.943 14.792C311.101 15.1093 311.227 15.4547 311.321 15.828C311.414 16.192 311.461 16.542 311.461 16.878C311.461 17.7367 311.246 18.5113 310.817 19.202C310.387 19.8833 309.734 20.42 308.857 20.812C307.989 21.204 306.892 21.4 305.567 21.4C305.473 21.4 305.357 21.4 305.217 21.4C305.077 21.4 304.955 21.3953 304.853 21.386C303.742 21.414 302.977 21.54 302.557 21.764C302.146 21.9787 301.941 22.2073 301.941 22.45C301.941 22.73 302.151 22.9307 302.571 23.052C302.991 23.164 303.723 23.2573 304.769 23.332C305.151 23.3507 305.609 23.374 306.141 23.402C306.682 23.43 307.284 23.4673 307.947 23.514C309.393 23.598 310.518 23.9713 311.321 24.634C312.133 25.2967 312.539 26.2113 312.539 27.378C312.539 28.6753 311.965 29.7347 310.817 30.556C309.678 31.3773 307.933 31.788 305.581 31.788ZM305.987 30.29C307.377 30.29 308.46 30.0707 309.235 29.632C310.009 29.2027 310.397 28.5447 310.397 27.658C310.397 27.042 310.168 26.538 309.711 26.146C309.253 25.7447 308.563 25.5113 307.639 25.446L303.369 25.18C303.023 25.1613 302.645 25.2593 302.235 25.474C301.824 25.6793 301.469 25.9733 301.171 26.356C300.881 26.7387 300.737 27.1727 300.737 27.658C300.737 28.4793 301.161 29.1233 302.011 29.59C302.869 30.0567 304.195 30.29 305.987 30.29ZM305.637 19.916C306.747 19.916 307.643 19.664 308.325 19.16C309.015 18.656 309.361 17.9 309.361 16.892C309.361 15.856 309.015 15.072 308.325 14.54C307.643 14.008 306.747 13.742 305.637 13.742C304.498 13.742 303.579 14.0127 302.879 14.554C302.188 15.086 301.843 15.8653 301.843 16.892C301.843 17.8533 302.169 18.6 302.823 19.132C303.485 19.6547 304.423 19.916 305.637 19.916ZM317.958 20.266C317.958 21.2367 318.116 22.1187 318.434 22.912C318.751 23.7053 319.241 24.34 319.904 24.816C320.566 25.292 321.406 25.53 322.424 25.53C323.404 25.53 324.248 25.3013 324.958 24.844C325.667 24.3773 326.11 23.7193 326.288 22.87H328.388C328.21 23.8407 327.823 24.6527 327.226 25.306C326.638 25.9593 325.924 26.454 325.084 26.79C324.253 27.1167 323.376 27.28 322.452 27.28C321.126 27.28 319.955 26.9907 318.938 26.412C317.93 25.824 317.141 24.9793 316.572 23.878C316.012 22.7767 315.732 21.4513 315.732 19.902C315.732 18.362 315.988 17.018 316.502 15.87C317.015 14.7127 317.757 13.8213 318.728 13.196C319.708 12.5613 320.888 12.244 322.27 12.244C323.604 12.244 324.734 12.5333 325.658 13.112C326.582 13.6813 327.286 14.498 327.772 15.562C328.257 16.626 328.5 17.8953 328.5 19.37V20.266H317.958ZM317.972 18.712H326.372C326.372 17.816 326.222 17.0087 325.924 16.29C325.625 15.5713 325.172 15.002 324.566 14.582C323.959 14.162 323.189 13.952 322.256 13.952C321.266 13.952 320.454 14.19 319.82 14.666C319.194 15.1327 318.728 15.73 318.42 16.458C318.112 17.186 317.962 17.9373 317.972 18.712ZM346.617 12.524V14.162H342.977V27H340.793V14.162H337.629V12.524H340.793V10.228C340.793 9.08933 341.073 8.226 341.633 7.638C342.193 7.05 343.047 6.756 344.195 6.756H346.757V8.352H344.531C343.915 8.352 343.495 8.52 343.271 8.856C343.056 9.18267 342.949 9.67733 342.949 10.34V12.524H346.617ZM350.025 27V12.524H352.097V15.142C352.34 14.4607 352.68 13.91 353.119 13.49C353.567 13.0607 354.066 12.748 354.617 12.552C355.177 12.3467 355.742 12.244 356.311 12.244C356.544 12.244 356.773 12.2627 356.997 12.3C357.221 12.328 357.398 12.3793 357.529 12.454V14.582C357.38 14.5073 357.179 14.456 356.927 14.428C356.684 14.4 356.479 14.386 356.311 14.386C355.798 14.358 355.298 14.3953 354.813 14.498C354.328 14.6007 353.884 14.7827 353.483 15.044C353.091 15.3053 352.778 15.6553 352.545 16.094C352.321 16.5327 352.209 17.0693 352.209 17.704V27H350.025ZM365.989 27.28C364.682 27.28 363.534 27 362.545 26.44C361.565 25.8707 360.804 25.0307 360.263 23.92C359.722 22.8093 359.451 21.442 359.451 19.818C359.451 18.306 359.698 16.9807 360.193 15.842C360.697 14.7033 361.434 13.8213 362.405 13.196C363.376 12.5613 364.575 12.244 366.003 12.244C367.31 12.244 368.444 12.5333 369.405 13.112C370.376 13.6813 371.127 14.5307 371.659 15.66C372.2 16.78 372.471 18.166 372.471 19.818C372.471 21.2927 372.228 22.59 371.743 23.71C371.258 24.83 370.534 25.7073 369.573 26.342C368.621 26.9673 367.426 27.28 365.989 27.28ZM366.003 25.516C366.908 25.516 367.678 25.292 368.313 24.844C368.957 24.396 369.447 23.7427 369.783 22.884C370.128 22.0253 370.301 20.9847 370.301 19.762C370.301 18.6607 370.152 17.676 369.853 16.808C369.554 15.94 369.088 15.2587 368.453 14.764C367.818 14.26 367.002 14.008 366.003 14.008C365.079 14.008 364.29 14.232 363.637 14.68C362.993 15.1187 362.498 15.7673 362.153 16.626C361.808 17.4847 361.635 18.53 361.635 19.762C361.635 20.8633 361.784 21.848 362.083 22.716C362.391 23.5747 362.867 24.256 363.511 24.76C364.155 25.264 364.986 25.516 366.003 25.516ZM376.029 27V12.524H378.129V14.638C378.512 13.994 379.044 13.434 379.725 12.958C380.416 12.482 381.321 12.244 382.441 12.244C382.982 12.244 383.528 12.3327 384.079 12.51C384.63 12.6873 385.134 12.9533 385.591 13.308C386.048 13.6627 386.398 14.1013 386.641 14.624C387.089 13.896 387.696 13.3173 388.461 12.888C389.226 12.4587 390.094 12.244 391.065 12.244C391.569 12.244 392.092 12.3187 392.633 12.468C393.184 12.6173 393.697 12.8833 394.173 13.266C394.649 13.6393 395.032 14.176 395.321 14.876C395.62 15.5667 395.769 16.458 395.769 17.55V27H393.585V17.746C393.585 16.7847 393.436 16.0473 393.137 15.534C392.838 15.0113 392.451 14.6473 391.975 14.442C391.499 14.2367 390.99 14.134 390.449 14.134C389.964 14.134 389.45 14.2273 388.909 14.414C388.377 14.5913 387.92 14.904 387.537 15.352C387.164 15.8 386.977 16.4207 386.977 17.214V27H384.793V16.878C384.793 16.2713 384.63 15.7673 384.303 15.366C383.986 14.9553 383.589 14.6473 383.113 14.442C382.637 14.2367 382.161 14.134 381.685 14.134C381.162 14.134 380.63 14.2367 380.089 14.442C379.557 14.6473 379.109 14.9787 378.745 15.436C378.39 15.8933 378.213 16.486 378.213 17.214V27H376.029Z" fill="black"/>
<path d="M1.81113 153.084V143.646V138.796C1.81113 133.99 2.70687 129.839 4.49834 126.343C6.28981 122.804 8.64931 119.745 11.5768 117.167C14.5481 114.546 17.7815 112.252 21.277 110.285C24.8163 108.319 28.3555 106.462 31.8948 104.714C35.434 102.967 38.6674 101.219 41.5949 99.471C44.5661 97.6795 46.9475 95.6914 48.739 93.5067C50.5304 91.322 51.4262 88.744 51.4262 85.7728C51.4262 81.9714 50.0935 78.8691 47.4281 76.4659C44.8065 74.0627 41.2017 72.8611 36.6138 72.8611C31.8511 72.8611 27.8093 74.2375 24.4886 76.9902C21.1678 79.743 19.1141 83.8939 18.3276 89.4431H0.0415039C0.128893 83.4133 1.52712 77.9515 4.23617 73.0577C6.98892 68.1202 11.0962 64.2096 16.558 61.3257C22.0198 58.4419 28.8798 57 37.1381 57C44.2166 57 50.312 58.2016 55.4242 60.6048C60.5802 63.008 64.5564 66.3506 67.3528 70.6327C70.1493 74.9147 71.5475 79.9177 71.5475 85.6417C71.5475 90.4044 70.6736 94.5117 68.9258 97.9635C67.178 101.415 64.8622 104.365 61.9784 106.812C59.0946 109.259 55.9267 111.4 52.4748 113.235C49.023 115.07 45.5711 116.774 42.1193 118.347C38.7111 119.92 35.5651 121.537 32.6813 123.197C29.7974 124.814 27.4816 126.649 25.7338 128.703C23.9861 130.756 23.1122 133.225 23.1122 136.109V136.961H71.4164V153.084H1.81113Z" fill="#425CC7"/>
<path d="M52.3023 221.866H16.4718V257.017H0V175.168H16.4718V207.998H52.3023V175.168H68.8307V257.017H52.3023V221.866Z" fill="black"/>
<path d="M121.136 258.149C113.401 258.149 106.702 256.47 101.042 253.112C95.4193 249.715 91.0608 244.904 87.9664 238.678C84.9098 232.413 83.3815 224.942 83.3815 216.262C83.3815 207.545 84.9287 200.036 88.023 193.734C91.1551 187.432 95.5514 182.583 101.212 179.187C106.872 175.753 113.514 174.036 121.136 174.036C128.721 174.036 135.325 175.734 140.948 179.13C146.571 182.526 150.91 187.375 153.967 193.677C157.061 199.979 158.608 207.508 158.608 216.262C158.608 224.904 157.08 232.357 154.023 238.621C151.005 244.885 146.684 249.715 141.061 253.112C135.438 256.47 128.797 258.149 121.136 258.149ZM121.136 244.564C125.136 244.564 128.589 243.621 131.495 241.734C134.438 239.81 136.703 236.791 138.288 232.678C139.872 228.527 140.665 223.13 140.665 216.489C140.665 209.659 139.854 204.13 138.231 199.904C136.646 195.677 134.382 192.583 131.438 190.621C128.533 188.621 125.099 187.621 121.136 187.621C117.174 187.621 113.721 188.621 110.778 190.621C107.834 192.583 105.551 195.696 103.929 199.96C102.306 204.187 101.495 209.696 101.495 216.489C101.495 223.168 102.306 228.564 103.929 232.678C105.551 236.791 107.834 239.81 110.778 241.734C113.721 243.621 117.174 244.564 121.136 244.564Z" fill="black"/>
<path d="M237.736 225.828C237.736 232.432 236.66 238.168 234.509 243.036C232.358 247.866 228.868 251.602 224.038 254.244C219.245 256.848 212.887 258.149 204.962 258.149C197 258.149 190.622 256.829 185.83 254.187C181.037 251.508 177.566 247.715 175.415 242.81C173.301 237.904 172.245 232.055 172.245 225.262V175.168H189.056V226.508C189.056 232.621 190.528 237.093 193.471 239.923C196.415 242.715 200.245 244.112 204.962 244.112C208.094 244.112 210.868 243.508 213.283 242.3C215.698 241.055 217.585 239.149 218.943 236.583C220.339 233.979 221.038 230.621 221.038 226.508V175.168H237.736V225.828Z" fill="black"/>
<path d="M317.676 257.017H300.525L287.223 225.489H270.638V257.017H254.166V175.168H288.695C295.223 175.168 300.563 176.205 304.714 178.281C308.865 180.356 311.921 183.243 313.883 186.941C315.846 190.602 316.827 194.828 316.827 199.621C316.827 203.923 316.148 207.564 314.789 210.545C313.468 213.489 311.714 215.942 309.525 217.904C307.374 219.866 305.015 221.47 302.449 222.715L317.676 257.017ZM285.751 212.753C290.166 212.753 293.657 211.564 296.223 209.187C298.827 206.809 300.129 203.753 300.129 200.017C300.129 196.243 298.883 193.262 296.393 191.073C293.902 188.885 290.751 187.79 286.94 187.79H270.638V212.753H285.751Z" fill="black"/>
<path d="M362.069 258.149C358.032 258.149 354.069 257.64 350.183 256.621C346.296 255.602 342.749 254.074 339.541 252.036C336.333 249.998 333.673 247.451 331.56 244.395C329.484 241.338 328.239 237.753 327.824 233.64H344.749C345.315 236.13 346.39 238.225 347.975 239.923C349.56 241.621 351.56 242.923 353.975 243.829C356.39 244.734 359.069 245.187 362.013 245.187C365.032 245.187 367.786 244.81 370.277 244.055C372.768 243.3 374.768 242.168 376.277 240.659C377.787 239.112 378.541 237.187 378.541 234.885C378.541 232.81 377.919 231.112 376.673 229.791C375.466 228.47 373.824 227.395 371.749 226.564C369.673 225.734 367.315 225.055 364.673 224.527L350.522 221.64C344.333 220.47 339.428 218.017 335.805 214.281C332.182 210.508 330.315 205.489 330.201 199.225C330.164 194.092 331.522 189.658 334.277 185.923C337.069 182.149 340.843 179.243 345.598 177.205C350.39 175.168 355.749 174.149 361.673 174.149C368.73 174.149 374.654 175.262 379.447 177.488C384.277 179.677 387.938 182.658 390.428 186.432C392.956 190.168 394.258 194.338 394.334 198.941H377.749C377.447 196.074 376.579 193.791 375.145 192.092C373.711 190.394 371.862 189.168 369.598 188.413C367.371 187.658 364.824 187.281 361.956 187.281C359.768 187.281 357.768 187.526 355.956 188.017C354.183 188.507 352.673 189.206 351.428 190.111C350.183 190.979 349.22 192.017 348.541 193.224C347.862 194.432 347.522 195.791 347.522 197.3C347.522 199.677 348.315 201.602 349.9 203.074C351.484 204.545 354.447 205.753 358.786 206.696L372.824 209.583C377.843 210.564 381.824 212.017 384.768 213.942C387.749 215.866 389.975 218.036 391.447 220.451C392.956 222.866 393.938 225.338 394.39 227.866C394.881 230.357 395.126 232.659 395.126 234.772C395.126 239.187 393.73 243.168 390.938 246.715C388.183 250.225 384.334 253.017 379.39 255.093C374.447 257.131 368.673 258.149 362.069 258.149Z" fill="black"/>
<path d="M96.8066 65.9777V58.077H131.965V65.9777H118.99V102.017H110.086V65.9777H96.8066Z" fill="black"/>
<path d="M156.11 102.625C151.957 102.625 148.361 101.724 145.322 99.9206C142.304 98.0973 139.964 95.5144 138.303 92.1718C136.662 88.8089 135.841 84.7977 135.841 80.1383C135.841 75.4586 136.672 71.4272 138.333 68.0441C140.014 64.6609 142.375 62.0578 145.413 60.2345C148.452 58.391 152.018 57.4692 156.11 57.4692C160.182 57.4692 163.727 58.3809 166.745 60.2041C169.764 62.0274 172.094 64.6306 173.734 68.0137C175.396 71.3968 176.226 75.4384 176.226 80.1383C176.226 84.7775 175.406 88.7785 173.765 92.1414C172.144 95.5043 169.825 98.0973 166.806 99.9206C163.788 101.724 160.222 102.625 156.11 102.625ZM156.11 95.3321C158.257 95.3321 160.111 94.8256 161.671 93.8127C163.251 92.7795 164.466 91.1588 165.317 88.9507C166.168 86.7223 166.593 83.8253 166.593 80.2599C166.593 76.5931 166.158 73.6253 165.287 71.3563C164.436 69.0874 163.22 67.4262 161.64 66.3728C160.08 65.2991 158.237 64.7622 156.11 64.7622C153.983 64.7622 152.129 65.2991 150.549 66.3728C148.969 67.4262 147.743 69.0975 146.872 71.3867C146.001 73.6557 145.565 76.6134 145.565 80.2599C145.565 83.8456 146.001 86.7425 146.872 88.9507C147.743 91.1588 148.969 92.7795 150.549 93.8127C152.129 94.8256 153.983 95.3321 156.11 95.3321Z" fill="black"/>
<path d="M102.847 115.967H179.113V131.459H102.847V115.967Z" fill="black"/>
<path d="M244.626 58.311H263.436V116.053H278.052V132.111H263.436V153.084H245.019L245.084 132.111H201.434V116.381L244.626 58.311ZM219.13 116.053H245.084V81.3162L219.13 116.053Z" fill="black"/>
<path d="M285.687 153.084V132.242H306.661V153.084H285.687Z" fill="black"/>
<path d="M327.573 58.311H388.461L387.74 73.9755H342.713L340.878 96.8495C344.373 94.8833 347.694 93.4632 350.84 92.5893C354.03 91.7154 357.525 91.2785 361.327 91.2785C367.662 91.2785 373.321 92.4801 378.302 94.8833C383.327 97.2428 387.303 100.717 390.23 105.304C393.158 109.892 394.622 115.485 394.622 122.083C394.622 128.768 393.114 134.536 390.099 139.386C387.084 144.236 382.802 147.972 377.253 150.594C371.748 153.215 365.215 154.526 357.656 154.526C351.452 154.526 345.684 153.565 340.353 151.642C335.023 149.72 330.413 147.098 326.524 143.777C322.635 140.413 319.686 136.568 317.676 132.242L332.619 123.394C334.323 126.365 336.246 129.052 338.387 131.456C340.528 133.815 342.997 135.694 345.793 137.092C348.633 138.447 351.932 139.124 355.69 139.124C361.37 139.124 365.936 137.616 369.388 134.602C372.84 131.587 374.566 127.654 374.566 122.804C374.566 119.745 373.78 117.015 372.207 114.611C370.677 112.164 368.558 110.242 365.849 108.844C363.14 107.445 359.972 106.746 356.345 106.746C354.423 106.746 352.588 106.921 350.84 107.271C349.136 107.577 347.388 108.188 345.597 109.106C343.849 109.98 341.904 111.247 339.763 112.907C339.152 113.169 338.715 113.3 338.453 113.3C338.234 113.3 337.797 113.148 337.142 112.842L323.247 106.419L327.573 58.311Z" fill="black"/>
<path d="M1.062 299.149L2.898 286.135H4.527L3.744 291.679H10.368L11.142 286.135H12.771L10.944 299.149H9.315L10.152 293.146H3.537L2.691 299.149H1.062ZM17.4136 299.329C16.5976 299.329 15.9106 299.146 15.3526 298.78C14.7946 298.408 14.3956 297.865 14.1556 297.151C13.9216 296.437 13.8736 295.564 14.0116 294.532C14.1496 293.56 14.4256 292.708 14.8396 291.976C15.2536 291.244 15.7906 290.677 16.4506 290.275C17.1166 289.867 17.8846 289.663 18.7546 289.663C19.5706 289.663 20.2516 289.852 20.7976 290.23C21.3496 290.602 21.7426 291.151 21.9766 291.877C22.2106 292.603 22.2556 293.488 22.1116 294.532C21.9796 295.48 21.7096 296.314 21.3016 297.034C20.8936 297.754 20.3626 298.318 19.7086 298.726C19.0606 299.128 18.2956 299.329 17.4136 299.329ZM17.6116 298.015C18.1336 298.015 18.5926 297.874 18.9886 297.592C19.3906 297.31 19.7206 296.905 19.9786 296.377C20.2366 295.849 20.4136 295.222 20.5096 294.496C20.5996 293.83 20.5966 293.233 20.5006 292.705C20.4106 292.171 20.2066 291.748 19.8886 291.436C19.5766 291.124 19.1356 290.968 18.5656 290.968C18.0316 290.968 17.5636 291.109 17.1616 291.391C16.7596 291.667 16.4296 292.069 16.1716 292.597C15.9136 293.125 15.7336 293.758 15.6316 294.496C15.5476 295.15 15.5506 295.744 15.6406 296.278C15.7366 296.812 15.9436 297.235 16.2616 297.547C16.5796 297.859 17.0296 298.015 17.6116 298.015ZM26.7293 299.329C26.1113 299.329 25.5503 299.23 25.0463 299.032C24.5483 298.828 24.1523 298.513 23.8583 298.087C23.5703 297.655 23.4293 297.106 23.4353 296.44H24.9113C24.9353 296.806 25.0343 297.112 25.2083 297.358C25.3823 297.598 25.6133 297.781 25.9013 297.907C26.1953 298.027 26.5283 298.087 26.9003 298.087C27.4883 298.087 27.9803 297.97 28.3763 297.736C28.7723 297.502 29.0033 297.142 29.0693 296.656C29.1173 296.314 29.0603 296.041 28.8983 295.837C28.7363 295.627 28.4603 295.474 28.0703 295.378L26.3153 294.901C25.6253 294.721 25.0943 294.439 24.7223 294.055C24.3503 293.671 24.2093 293.134 24.2993 292.444C24.3713 291.898 24.5633 291.418 24.8753 291.004C25.1873 290.59 25.6103 290.263 26.1443 290.023C26.6843 289.783 27.3263 289.663 28.0703 289.663C29.0423 289.663 29.7923 289.891 30.3203 290.347C30.8543 290.797 31.0733 291.46 30.9773 292.336H29.5373C29.5433 291.892 29.4053 291.541 29.1233 291.283C28.8413 291.019 28.4303 290.887 27.8903 290.887C27.3323 290.887 26.8613 291.007 26.4773 291.247C26.0933 291.481 25.8683 291.847 25.8023 292.345C25.7543 292.675 25.8413 292.936 26.0633 293.128C26.2913 293.314 26.6393 293.47 27.1073 293.596L28.7993 294.064C29.1953 294.178 29.5163 294.328 29.7623 294.514C30.0083 294.7 30.1913 294.907 30.3113 295.135C30.4373 295.363 30.5153 295.603 30.5453 295.855C30.5753 296.101 30.5723 296.338 30.5363 296.566C30.4583 297.136 30.2543 297.628 29.9243 298.042C29.6003 298.45 29.1653 298.768 28.6193 298.996C28.0793 299.218 27.4493 299.329 26.7293 299.329ZM32.2133 302.047L33.8423 289.843H35.4623L35.2733 291.463C35.4473 291.211 35.6753 290.947 35.9573 290.671C36.2393 290.389 36.5843 290.152 36.9923 289.96C37.4063 289.762 37.8773 289.663 38.4053 289.663C39.1133 289.663 39.7133 289.834 40.2053 290.176C40.6973 290.512 41.0483 291.028 41.2583 291.724C41.4683 292.42 41.5013 293.302 41.3573 294.37C41.2193 295.438 40.9523 296.341 40.5563 297.079C40.1603 297.811 39.6593 298.369 39.0533 298.753C38.4473 299.137 37.7573 299.329 36.9833 299.329C36.5933 299.329 36.2543 299.269 35.9663 299.149C35.6843 299.035 35.4413 298.885 35.2373 298.699C35.0393 298.507 34.8773 298.303 34.7513 298.087C34.6253 297.871 34.5293 297.664 34.4633 297.466L33.8513 302.047H32.2133ZM36.8483 298.033C37.5683 298.033 38.1953 297.742 38.7293 297.16C39.2693 296.572 39.6203 295.66 39.7823 294.424C39.9203 293.362 39.8213 292.519 39.4853 291.895C39.1493 291.271 38.5823 290.959 37.7843 290.959C36.9683 290.959 36.3083 291.28 35.8043 291.922C35.3063 292.558 34.9913 293.392 34.8593 294.424C34.7693 295.09 34.7783 295.696 34.8863 296.242C35.0003 296.788 35.2193 297.223 35.5433 297.547C35.8733 297.871 36.3083 298.033 36.8483 298.033ZM43.0969 299.149L44.4109 289.843H45.9859L44.6809 299.149H43.0969ZM44.6359 287.872L44.8789 286.144H46.5439L46.3009 287.872H44.6359ZM50.975 299.194C50.357 299.194 49.889 299.107 49.571 298.933C49.259 298.759 49.058 298.501 48.968 298.159C48.884 297.817 48.878 297.397 48.95 296.899L49.787 291.058H48.347L48.536 289.843H49.994L50.687 287.134H51.983L51.596 289.834H53.594L53.414 291.058H51.416L50.597 296.782C50.531 297.28 50.57 297.595 50.714 297.727C50.864 297.859 51.128 297.925 51.506 297.925H52.478L52.316 299.041C52.202 299.083 52.031 299.119 51.803 299.149C51.581 299.179 51.305 299.194 50.975 299.194ZM57.0355 299.329C56.4655 299.329 55.9765 299.224 55.5685 299.014C55.1605 298.798 54.8635 298.489 54.6775 298.087C54.4915 297.685 54.4375 297.199 54.5155 296.629C54.6595 295.597 55.1095 294.829 55.8655 294.325C56.6275 293.821 57.7645 293.551 59.2765 293.515L60.8245 293.47L60.9325 292.741C61.0165 292.147 60.8995 291.691 60.5815 291.373C60.2695 291.049 59.8135 290.887 59.2135 290.887C58.7275 290.893 58.2655 291.025 57.8275 291.283C57.3895 291.541 57.0805 291.937 56.9005 292.471H55.4695C55.5775 291.931 55.8115 291.451 56.1715 291.031C56.5375 290.605 56.9995 290.272 57.5575 290.032C58.1215 289.786 58.7605 289.663 59.4745 289.663C60.2365 289.663 60.8575 289.786 61.3375 290.032C61.8175 290.278 62.1535 290.626 62.3455 291.076C62.5435 291.52 62.5975 292.045 62.5075 292.651L61.5715 299.149H60.1945L60.3025 297.457C59.8525 298.183 59.3515 298.678 58.7995 298.942C58.2475 299.2 57.6595 299.329 57.0355 299.329ZM57.6925 298.132C57.9865 298.132 58.2865 298.075 58.5925 297.961C58.8985 297.847 59.1835 297.694 59.4475 297.502C59.7115 297.304 59.9335 297.085 60.1135 296.845C60.2935 296.599 60.4015 296.347 60.4375 296.089L60.6715 294.496L59.3935 294.523C58.7335 294.535 58.1695 294.607 57.7015 294.739C57.2395 294.871 56.8765 295.078 56.6125 295.36C56.3485 295.642 56.1805 296.011 56.1085 296.467C56.0365 296.989 56.1505 297.397 56.4505 297.691C56.7505 297.985 57.1645 298.132 57.6925 298.132ZM66.7349 299.266C66.2549 299.266 65.8769 299.197 65.6009 299.059C65.3249 298.921 65.1239 298.735 64.9979 298.501C64.8719 298.267 64.8029 298 64.7909 297.7C64.7789 297.394 64.7939 297.079 64.8359 296.755L66.4289 285.775H68.0309L66.4649 296.593C66.3989 297.061 66.4349 297.412 66.5729 297.646C66.7169 297.88 66.9449 298.009 67.2569 298.033L67.7249 298.042L67.5719 299.122C67.4219 299.164 67.2719 299.197 67.1219 299.221C66.9719 299.251 66.8429 299.266 66.7349 299.266ZM78.4873 299.329C77.8993 299.329 77.3413 299.254 76.8133 299.104C76.2853 298.954 75.8143 298.729 75.4003 298.429C74.9923 298.123 74.6713 297.745 74.4373 297.295C74.2093 296.839 74.0983 296.305 74.1043 295.693H75.8233C75.8653 296.185 76.0123 296.599 76.2643 296.935C76.5223 297.271 76.8583 297.523 77.2723 297.691C77.6923 297.859 78.1603 297.943 78.6763 297.943C79.2583 297.943 79.7863 297.859 80.2603 297.691C80.7403 297.517 81.1333 297.271 81.4393 296.953C81.7513 296.635 81.9373 296.254 81.9973 295.81C82.0513 295.42 82.0123 295.081 81.8803 294.793C81.7483 294.505 81.5353 294.265 81.2413 294.073C80.9473 293.881 80.5783 293.731 80.1343 293.623L77.7943 293.029C76.9003 292.819 76.2283 292.444 75.7783 291.904C75.3343 291.364 75.1693 290.65 75.2833 289.762C75.3853 289.012 75.6673 288.352 76.1293 287.782C76.5913 287.212 77.1793 286.768 77.8933 286.45C78.6133 286.132 79.4023 285.973 80.2603 285.973C81.2143 285.973 82.0033 286.156 82.6273 286.522C83.2513 286.888 83.7073 287.362 83.9953 287.944C84.2833 288.52 84.3943 289.12 84.3283 289.744H82.6363C82.6603 289.156 82.5583 288.691 82.3303 288.349C82.1083 288.001 81.7993 287.755 81.4033 287.611C81.0073 287.461 80.5633 287.386 80.0713 287.386C79.6093 287.386 79.1563 287.47 78.7123 287.638C78.2743 287.8 77.9023 288.046 77.5963 288.376C77.2963 288.706 77.1133 289.114 77.0473 289.6C76.9813 290.068 77.0803 290.449 77.3443 290.743C77.6083 291.037 78.1273 291.289 78.9013 291.499L81.1603 292.093C81.7723 292.231 82.2583 292.435 82.6183 292.705C82.9783 292.975 83.2423 293.281 83.4103 293.623C83.5783 293.965 83.6773 294.322 83.7073 294.694C83.7373 295.066 83.7283 295.432 83.6803 295.792C83.5903 296.446 83.3203 297.043 82.8703 297.583C82.4263 298.117 81.8323 298.543 81.0883 298.861C80.3443 299.173 79.4773 299.329 78.4873 299.329ZM88.6801 299.194C88.0621 299.194 87.5941 299.107 87.2761 298.933C86.9641 298.759 86.7631 298.501 86.6731 298.159C86.5891 297.817 86.5831 297.397 86.6551 296.899L87.4921 291.058H86.0521L86.2411 289.843H87.6991L88.3921 287.134H89.6881L89.3011 289.834H91.2991L91.1191 291.058H89.1211L88.3021 296.782C88.2361 297.28 88.2751 297.595 88.4191 297.727C88.5691 297.859 88.8331 297.925 89.2111 297.925H90.1831L90.0211 299.041C89.9071 299.083 89.7361 299.119 89.5081 299.149C89.2861 299.179 89.0101 299.194 88.6801 299.194ZM94.7406 299.329C94.1706 299.329 93.6816 299.224 93.2736 299.014C92.8656 298.798 92.5686 298.489 92.3826 298.087C92.1966 297.685 92.1426 297.199 92.2206 296.629C92.3646 295.597 92.8146 294.829 93.5706 294.325C94.3326 293.821 95.4696 293.551 96.9816 293.515L98.5296 293.47L98.6376 292.741C98.7216 292.147 98.6046 291.691 98.2866 291.373C97.9746 291.049 97.5186 290.887 96.9186 290.887C96.4326 290.893 95.9706 291.025 95.5326 291.283C95.0946 291.541 94.7856 291.937 94.6056 292.471H93.1746C93.2826 291.931 93.5166 291.451 93.8766 291.031C94.2426 290.605 94.7046 290.272 95.2626 290.032C95.8266 289.786 96.4656 289.663 97.1796 289.663C97.9416 289.663 98.5626 289.786 99.0426 290.032C99.5226 290.278 99.8586 290.626 100.051 291.076C100.249 291.52 100.303 292.045 100.213 292.651L99.2766 299.149H97.8996L98.0076 297.457C97.5576 298.183 97.0566 298.678 96.5046 298.942C95.9526 299.2 95.3646 299.329 94.7406 299.329ZM95.3976 298.132C95.6916 298.132 95.9916 298.075 96.2976 297.961C96.6036 297.847 96.8886 297.694 97.1526 297.502C97.4166 297.304 97.6386 297.085 97.8186 296.845C97.9986 296.599 98.1066 296.347 98.1426 296.089L98.3766 294.496L97.0986 294.523C96.4386 294.535 95.8746 294.607 95.4066 294.739C94.9446 294.871 94.5816 295.078 94.3176 295.36C94.0536 295.642 93.8856 296.011 93.8136 296.467C93.7416 296.989 93.8556 297.397 94.1556 297.691C94.4556 297.985 94.8696 298.132 95.3976 298.132ZM104.957 299.194C104.339 299.194 103.871 299.107 103.553 298.933C103.241 298.759 103.04 298.501 102.95 298.159C102.866 297.817 102.86 297.397 102.932 296.899L103.769 291.058H102.329L102.518 289.843H103.976L104.669 287.134H105.965L105.578 289.834H107.576L107.396 291.058H105.398L104.579 296.782C104.513 297.28 104.552 297.595 104.696 297.727C104.846 297.859 105.11 297.925 105.488 297.925H106.46L106.298 299.041C106.184 299.083 106.013 299.119 105.785 299.149C105.563 299.179 105.287 299.194 104.957 299.194ZM111.72 299.329C111.102 299.329 110.541 299.23 110.037 299.032C109.539 298.828 109.143 298.513 108.849 298.087C108.561 297.655 108.42 297.106 108.426 296.44H109.902C109.926 296.806 110.025 297.112 110.199 297.358C110.373 297.598 110.604 297.781 110.892 297.907C111.186 298.027 111.519 298.087 111.891 298.087C112.479 298.087 112.971 297.97 113.367 297.736C113.763 297.502 113.994 297.142 114.06 296.656C114.108 296.314 114.051 296.041 113.889 295.837C113.727 295.627 113.451 295.474 113.061 295.378L111.306 294.901C110.616 294.721 110.085 294.439 109.713 294.055C109.341 293.671 109.2 293.134 109.29 292.444C109.362 291.898 109.554 291.418 109.866 291.004C110.178 290.59 110.601 290.263 111.135 290.023C111.675 289.783 112.317 289.663 113.061 289.663C114.033 289.663 114.783 289.891 115.311 290.347C115.845 290.797 116.064 291.46 115.968 292.336H114.528C114.534 291.892 114.396 291.541 114.114 291.283C113.832 291.019 113.421 290.887 112.881 290.887C112.323 290.887 111.852 291.007 111.468 291.247C111.084 291.481 110.859 291.847 110.793 292.345C110.745 292.675 110.832 292.936 111.054 293.128C111.282 293.314 111.63 293.47 112.098 293.596L113.79 294.064C114.186 294.178 114.507 294.328 114.753 294.514C114.999 294.7 115.182 294.907 115.302 295.135C115.428 295.363 115.506 295.603 115.536 295.855C115.566 296.101 115.563 296.338 115.527 296.566C115.449 297.136 115.245 297.628 114.915 298.042C114.591 298.45 114.156 298.768 113.61 298.996C113.07 299.218 112.44 299.329 111.72 299.329Z" fill="black"/>
</svg>
